<?xml version="1.0" encoding="utf-8"?>
<svg width="409px" height="409px" viewBox="0 0 409 409" version="1.1" xmlns:xlink="http://www.w3.org/1999/xlink" xmlns="http://www.w3.org/2000/svg">
  <defs>
    <path d="M409 0L409 0L409 409L0 409L0 0L409 0Z" id="path_1" />
    <path d="M296.59 39C335.255 39 366.59 70.3348 366.59 109L366.59 299C366.59 337.665 335.255 369 296.59 369L112 369C73.3348 369 42 337.665 42 299L42 109C42 70.3348 73.3348 39 112 39L296.59 39Z" id="path_2" />
    <clipPath id="clip_1">
      <use xlink:href="#path_1" clip-rule="evenodd" fill-rule="evenodd" />
    </clipPath>
    <clipPath id="clip_2">
      <use xlink:href="#path_2" />
    </clipPath>
  </defs>
  <g id="Maximize" clip-path="url(#clip_1)">
    <path d="M409 0L409 0L409 409L0 409L0 0L409 0Z" id="Maximize" fill="none" stroke="none" />
    <g id="Rectangle-2">
      <g clip-path="url(#clip_2)">
        <use xlink:href="#path_2" fill="none" stroke="#000000" stroke-width="40" />
      </g>
    </g>
  </g>
</svg>