<?xml version="1.0" encoding="utf-8"?>
<svg width="409px" height="409px" viewBox="0 0 409 409" version="1.1" xmlns:xlink="http://www.w3.org/1999/xlink" xmlns="http://www.w3.org/2000/svg">
  <g id="SVGRepo_iconCarrier">
    <g id="页面-1">
      <g id="System">
        <g id="restore_line">
          <path d="M409 0L409 409L0 409L0 0L409 0L409 0ZM214.614 396.352L214.417 396.381L213.206 396.986L212.882 397.049L212.882 397.049L212.624 396.986L211.413 396.381C211.245 396.327 211.096 396.373 211.012 396.473L210.942 396.659L210.651 403.94L210.735 404.288L210.923 404.496L212.688 405.757L212.942 405.824L212.942 405.824L213.142 405.757L214.907 404.496L215.122 404.223L215.122 404.223L215.179 403.94L214.888 396.659C214.854 396.486 214.742 396.377 214.614 396.352L214.614 396.352L214.614 396.352ZM219.128 394.434L218.893 394.469L215.745 396.042L215.575 396.217L215.575 396.217L215.529 396.408L215.834 403.728L215.917 403.946L215.917 403.946L216.061 404.066L219.485 405.647C219.691 405.709 219.876 405.643 219.971 405.51L220.039 405.271L219.457 394.796C219.416 394.593 219.282 394.463 219.128 394.434L219.128 394.434L219.128 394.434ZM206.938 394.469C206.77 394.385 206.582 394.434 206.471 394.559L206.373 394.796L205.791 405.271C205.78 405.467 205.911 405.623 206.079 405.669L206.345 405.647L209.77 404.066L209.93 403.929L209.93 403.929L209.996 403.728L210.301 396.408L210.247 396.193L210.247 396.193L210.085 396.042L206.938 394.469L206.938 394.469Z" id="MingCute" fill="none" fill-rule="evenodd" stroke="none" />
          <path d="M331.458 40.125C350.657 40.125 366.385 54.9808 367.775 73.8239L367.875 76.5417L367.875 258.625C367.875 277.824 353.02 293.552 334.176 294.942L331.458 295.042L295.042 295.042L295.042 331.458C295.042 350.657 280.186 366.385 261.343 367.775L258.625 367.875L76.5417 367.875C57.3435 367.875 41.6151 353.02 40.2249 334.176L40.125 331.458L40.125 149.375C40.125 130.177 54.9808 114.448 73.8239 113.058L76.5417 112.958L112.958 112.958L112.958 76.5417C112.958 57.3435 127.814 41.6151 146.657 40.2249L149.375 40.125L331.458 40.125L331.458 40.125ZM258.625 149.375L76.5416 149.375L76.5416 331.458L258.625 331.458L258.625 149.375L258.625 149.375ZM331.458 76.5417L149.375 76.5417L149.375 112.958L258.625 112.958L261.343 113.058C279.244 114.379 293.546 128.64 294.932 146.523L295.042 149.375L295.042 258.625L331.458 258.625L331.458 76.5417L331.458 76.5417Z" id="形状" fill="#000000" fill-rule="evenodd" stroke="none" />
        </g>
      </g>
    </g>
  </g>
</svg>